<?xml version="1.0"?>
<svg xmlns="http://www.w3.org/2000/svg" xmlns:xlink="http://www.w3.org/1999/xlink" version="1.1" viewBox="0 0 224 224" width="50px" height="50px"><g fill="none" fill-rule="nonzero" stroke="none" stroke-width="1" stroke-linecap="butt" stroke-linejoin="miter" stroke-miterlimit="10" stroke-dasharray="" stroke-dashoffset="0" font-family="none" font-weight="none" font-size="none" text-anchor="none" style="mix-blend-mode: normal"><path d="M0,224v-224h224v224z" fill="none"/><g fill="#8eefb7"><g id="surface1"><path d="M112,8.96c-56.6825,0 -103.04,42.9975 -103.04,96.32c0,29.155 14.035,55.0375 35.84,72.66v40.04l6.58,-3.5l32.34,-16.8c9.03,2.415 18.4275,3.92 28.28,3.92c56.6825,0 103.04,-42.9975 103.04,-96.32c0,-53.3225 -46.3575,-96.32 -103.04,-96.32zM112,17.92c52.1675,0 94.08,39.235 94.08,87.36c0,48.125 -41.9125,87.36 -94.08,87.36c-9.695,0 -19.075,-1.4 -27.86,-3.92l-1.68,-0.42l-1.54,0.84l-27.16,14.14v-29.4l-1.68,-1.26c-20.895,-16.0825 -34.16,-40.285 -34.16,-67.34c0,-48.125 41.9125,-87.36 94.08,-87.36zM101.78,79.38l-53.9,57.12l48.44,-27.16l25.9,27.72l53.2,-57.68l-47.18,26.46z"/></g></g></g></svg>
